P2
#Creada por: ESTIMACION DE DIMENSIONES
#Fichero de datos: imagen3
6 28 
255
0 0 0 0 0 0 
0 0 0 0 0 0 
0 0 0 0 0 0 
0 0 0 0 0 0 
0 51 51 51 51 0 
0 119 119 119 119 0 
0 187 187 187 187 0 
0 255 255 255 255 0 
0 51 0 0 0 0 
0 119 0 0 0 0 
0 187 0 0 0 0 
0 255 0 0 255 0 
0 51 51 51 0 0 
0 119 119 119 0 0 
0 187 187 187 0 0 
0 255 255 255 255 0 
0 51 0 0 0 0 
0 119 0 0 0 0 
0 187 0 0 0 0 
0 255 0 0 0 0 
0 51 0 0 0 0 
0 119 119 119 119 0 
0 187 187 187 187 0 
0 255 0 0 0 0 
0 0 0 0 0 0 
0 0 0 0 0 0 
0 0 0 0 0 0 
0 0 0 0 0 0 
