P2
4 4
255
255 0 0 170 
0 63 0 0 
0 0 143 0 
170 0 33 0 